<?xml version="1.0" encoding="UTF-8"?>
<svg xmlns="http://www.w3.org/2000/svg" width="1600" height="900" viewBox="0 0 1600 900">
  <style>
    .title { fill:#ecf0f1; font-family: 'Segoe UI', Arial; font-size:22px }
    .text { fill:#bdc3c7; font-family: 'Segoe UI', Arial; font-size:16px }
    .box { fill:#071018; stroke:#27404a }
  </style>
  <rect width="100%" height="100%" fill="#031017" />
  <text x="30" y="40" class="title">Painel do Colosso — Operações</text>

  <g transform="translate(30,70)">
    <rect x="0" y="0" width="380" height="740" rx="8" class="box" />
    <text x="24" y="38" class="title">Tarefas Ativas</text>
    <g transform="translate(24,64)">
      <rect x="0" y="0" width="332" height="60" rx="6" fill="#0b2830" stroke="#2c3e50" />
      <text x="12" y="36" class="text">Ignition Step 2 — Aguardando Engenheiro</text>
      <rect x="0" y="80" width="332" height="60" rx="6" fill="#0b2830" stroke="#2c3e50" />
      <text x="12" y="116" class="text">Reparar Oficina — 2 kits necessários</text>
      <rect x="0" y="160" width="332" height="60" rx="6" fill="#0b2830" stroke="#2c3e50" />
      <text x="12" y="196" class="text">Reabastecer Filtro de Ar — 1x no inventário</text>
      <rect x="0" y="240" width="332" height="60" rx="6" fill="#0b2830" stroke="#2c3e50" />
      <text x="12" y="276" class="text">Dispatch Scout Drone — Disponível</text>
    </g>
  </g>

  <g transform="translate(440,70)">
    <rect x="0" y="0" width="1130" height="540" rx="8" class="box" />
    <text x="18" y="34" class="title">Esquema do Colosso</text>
    <!-- Rooms schematic -->
    <rect x="24" y="60" width="320" height="160" rx="6" fill="#0b2830" stroke="#2c3e50" />
    <text x="36" y="92" class="text">Sala de Motores</text>
    <rect x="364" y="60" width="320" height="160" rx="6" fill="#08242a" stroke="#2c3e50" />
    <text x="376" y="92" class="text">Sala de Comando</text>
    <rect x="704" y="60" width="320" height="160" rx="6" fill="#08242a" stroke="#2c3e50" />
    <text x="716" y="92" class="text">Oficina</text>

    <rect x="24" y="240" width="680" height="180" rx="6" fill="#08242a" stroke="#2c3e50" />
    <text x="36" y="272" class="text">Dormitórios</text>
    <rect x="724" y="240" width="430" height="180" rx="6" fill="#08242a" stroke="#2c3e50" />
    <text x="736" y="272" class="text">Arsenal / Provisões</text>
  </g>

  <g transform="translate(30,630)">
    <rect x="0" y="0" width="1540" height="200" rx="8" class="box" />
    <text x="24" y="36" class="title">Ações Rápidas</text>
    <text x="24" y="72" class="text">[Reparar Sala]  [Distribuir Recursos]  [Ativar Overdrive]</text>
    <text x="24" y="110" class="text">Roles: Piloto (1) · Engenheiro (2) · Atirador (3) · Scavenger (4)</text>
  </g>

</svg>
